<?xml version="1.0" encoding="UTF-8"?>
<svg width="211px" height="56px" viewBox="0 0 211 56" version="1.1" xmlns="http://www.w3.org/2000/svg" xmlns:xlink="http://www.w3.org/1999/xlink">
        <g id="deuna-logo" transform="translate(-644.000000, -112.000000)" fill="#3F2A56">
            <path d="M704.012024,121.861883 C718.851422,121.861883 718.723542,137.652634 716.24943,148.674069 L716.24943,148.674069 L694.440331,148.674069 C693.915626,152.222174 694.88989,156.675896 699.386797,156.675896 C702.159736,156.675896 703.97511,155.822952 707.27583,152.386389 L707.27583,152.386389 L713.859693,159.545453 C712.361602,161.072519 710.974693,162.368976 709.624259,163.456956 C706.644338,165.670095 702.249823,167.999203 696.943447,167.999203 C685.177133,167.999203 682.074166,160.148312 682.074166,149.958132 C682.074166,138.105442 689.022333,121.861883 704.012024,121.861883 Z M735.186362,123.260277 L728.990535,152.600311 C728.840243,153.354992 728.765096,154.034425 728.765096,154.63817 C728.765096,156.978344 729.814506,158.412901 731.912887,158.412901 C735.135825,158.412901 737.534351,154.864353 738.583322,149.882576 L744.098438,123.260277 L756.080523,123.260277 L750.301735,151.241886 C750.22615,151.618562 750.151443,151.996124 750.151443,152.373243 C750.151443,154.260166 751.575266,155.015731 753.749232,155.015731 L750.900708,167.999336 C745.055124,167.999336 740.756849,166.338596 738.883467,161.205883 L738.733175,161.205883 C736.560087,164.904482 733.412296,167.924089 727.790832,167.924089 C720.22128,167.924089 716.473638,162.94187 716.473638,155.845659 C716.473638,154.336298 716.62393,152.675558 716.998782,151.014375 L722.800861,123.260277 L735.186362,123.260277 Z M783.464503,121.861573 C792.008319,121.861573 794.336094,129.651382 792.536979,138.483579 L789.914333,151.241886 C789.389188,153.959179 790.340161,155.002453 792.88898,155.002453 L790.167457,167.999336 C780.873937,167.924089 774.849935,163.168052 777.547289,150.712503 L780.545227,136.973332 C781.070371,134.634044 780.545227,131.613994 777.697581,131.613994 C773.050382,131.613994 771.626559,135.765844 769.603324,145.730726 L764.955685,167.999336 L752.589959,167.999336 L760.309804,131.009807 C761.433921,125.650468 760.442518,123.260277 760.442518,123.260277 L771.926704,123.260277 C773.223525,124.366404 773.433144,125.429596 773.433144,127.392651 C773.433144,127.392651 776.640261,121.861573 783.464503,121.861573 Z M816.586929,121.861794 C825.805743,121.861794 831.092784,128.292293 831.092784,136.143184 C831.092784,137.426805 831.017198,138.70954 830.717932,139.993161 L828.319845,151.241222 C828.244699,151.618784 828.169992,151.995903 828.169992,152.373464 C828.169992,154.260387 829.593815,155.016395 831.766463,155.016395 L828.919257,168 C824.272497,168 818.27706,166.338817 816.402799,161.206104 L816.253386,161.206104 C814.229712,164.829014 811.006335,167.924311 805.760602,167.924311 C798.640609,167.924311 794.218409,162.2631 794.218409,152.222528 C794.218409,139.465106 801.447386,121.861794 816.586929,121.861794 Z M686.18251,112.075468 L677.984542,151.335236 C677.909835,151.710142 677.835568,152.085933 677.835568,152.461282 C677.835568,153.948511 678.728094,154.726651 680.173889,154.986031 L680.173889,154.986031 L677.456321,167.962111 C672.048431,167.677944 667.820029,165.678594 666.027506,161.318709 L666.027506,161.318709 L665.911052,161.318709 C663.898803,164.9217 660.694323,167.999292 655.477155,167.999292 C648.397152,167.999292 644,162.369507 644,152.386477 C644,136.246936 653.303628,121.861971 663.662818,121.861971 C667.110754,121.861971 669.876223,124.488968 670.835106,127.175277 L670.835106,127.175277 L673.99652,112.075468 L686.18251,112.075468 Z M839.353198,156.988967 C842.37179,156.988967 844.818656,159.453519 844.818656,162.494373 C844.818656,165.535226 842.37179,167.999336 839.353198,167.999336 C836.334605,167.999336 833.8873,165.535226 833.8873,162.494373 C833.8873,159.453519 836.334605,156.988967 839.353198,156.988967 Z M665.389423,131.517899 C659.650626,131.517899 655.999223,146.305655 655.999223,152.761383 C655.999223,156.28957 657.042481,158.541219 659.502091,158.541219 C662.557597,158.541219 664.91086,155.509217 665.953678,150.555326 L665.953678,150.555326 L668.413289,138.694668 C669.307572,134.491031 667.848593,131.517899 665.389423,131.517899 Z M815.504121,132.519389 C809.732804,132.519389 806.285747,146.108509 806.285747,152.60009 C806.285747,156.147752 807.334718,158.413122 809.807951,158.413122 C812.880595,158.413122 815.128829,154.864131 816.178679,149.882354 L818.426473,139.238481 C818.576766,138.332421 818.726619,137.577741 818.726619,136.822618 C818.726619,134.105325 817.452209,132.519389 815.504121,132.519389 Z M855,112 L845.959164,155.071237 L833.333283,155.071237 L840.072712,123.199814 L836.599287,123.199814 L838.067494,116.010652 C839.181064,115.925224 840.390435,115.554302 841.543995,114.883278 C842.867623,114.113548 843.889787,113.082225 844.510732,112 L844.510732,112 L855,112 Z M703.059293,131.764797 C699.911502,131.764797 697.513415,135.463838 696.164299,139.99325 L696.164299,139.99325 L706.057231,139.99325 C706.881642,135.916647 706.207084,131.764797 703.059293,131.764797 Z" id="Combined-Shape-Copy-2"></path>
        </g>
</svg>
