<?xml version="1.0" encoding="UTF-8"?>
<svg id="Capa_1" data-name="Capa 1" xmlns="http://www.w3.org/2000/svg" viewBox="0 0 106.72 106.72">
  <defs>
    <style>
      .cls-1 {
        fill: #ee8113;
      }

      .cls-1, .cls-2, .cls-3 {
        stroke-width: 0px;
      }

      .cls-2 {
        fill: #fff;
      }

      .cls-3 {
        fill: #10497d;
      }
    </style>
  </defs>
  <path class="cls-3" d="m71.24,41.08l-5.39,12.12c-.51,1.15-1.64,1.89-2.91,1.89h-17.28c-1.24,0-2.35-.74-2.87-1.87l-5.39-12.13c-.47-1.04,0-2.25,1.04-2.72s2.25,0,2.72,1.04l5.13,11.56h16.04l5.15-11.56c.45-1.04,1.67-1.49,2.72-1.04,1.03.47,1.49,1.67,1.04,2.72Z"/>
  <path class="cls-1" d="m54.32,2.27C26.02,2.27,3.06,25.22,3.06,53.53s22.95,51.26,51.26,51.26,51.26-22.95,51.26-51.26S82.63,2.27,54.32,2.27Zm-19.27,83.66c-3.43,0-6.2-2.78-6.2-6.2s2.78-6.2,6.2-6.2,6.2,2.78,6.2,6.2-2.78,6.2-6.2,6.2Zm38.3,0c-3.43,0-6.2-2.78-6.2-6.2s2.78-6.2,6.2-6.2,6.2,2.78,6.2,6.2-2.78,6.2-6.2,6.2Zm8.75-22.23c0,3.83-3.12,6.96-6.96,6.96h-41.65c-3.85,0-6.96-3.12-6.96-6.96v-29.3c0-3.83,3.11-6.96,6.96-6.96h41.65c3.83,0,6.96,3.12,6.96,6.96v29.3Z"/>
  <circle class="cls-2" cx="73.35" cy="79.72" r="6.2"/>
  <circle class="cls-2" cx="35.05" cy="79.72" r="6.2"/>
  <path class="cls-2" d="m75.15,27.44h-41.65c-3.85,0-6.96,3.12-6.96,6.96v29.3c0,3.83,3.11,6.96,6.96,6.96h41.65c3.83,0,6.96-3.12,6.96-6.96v-29.3c0-3.83-3.12-6.96-6.96-6.96Zm-3.91,13.64l-5.39,12.12c-.51,1.15-1.64,1.89-2.91,1.89h-17.28c-1.24,0-2.35-.74-2.87-1.87l-5.39-12.13c-.47-1.04,0-2.25,1.04-2.72s2.25,0,2.72,1.04l5.13,11.56h16.04l5.15-11.56c.45-1.04,1.67-1.49,2.72-1.04,1.03.47,1.49,1.67,1.04,2.72Z"/>
  <path class="cls-3" d="m71.24,41.08l-5.39,12.12c-.51,1.15-1.64,1.89-2.91,1.89h-17.28c-1.24,0-2.35-.74-2.87-1.87l-5.39-12.13c-.47-1.04,0-2.25,1.04-2.72s2.25,0,2.72,1.04l5.13,11.56h16.04l5.15-11.56c.45-1.04,1.67-1.49,2.72-1.04,1.03.47,1.49,1.67,1.04,2.72Z"/>
  <path class="cls-1" d="m71.24,41.08l-5.39,12.12c-.51,1.15-1.64,1.89-2.91,1.89h-17.28c-1.24,0-2.35-.74-2.87-1.87l-5.39-12.13c-.47-1.04,0-2.25,1.04-2.72s2.25,0,2.72,1.04l5.13,11.56h16.04l5.15-11.56c.45-1.04,1.67-1.49,2.72-1.04,1.03.47,1.49,1.67,1.04,2.72Z"/>
</svg>